<svg width="47" height="145" viewBox="0 0 47 145" fill="none" xmlns="http://www.w3.org/2000/svg">
<path d="M23.8164 21.5859L44.5586 0.84375L46.8633 3.14844L23.8164 26.1953L0.539062 2.91797L3.07422 0.843748L23.8164 21.5859ZM23.8164 51.0859L44.5586 30.3437L46.8633 32.6484L23.8164 55.6953L0.539061 32.418L3.07422 30.3437L23.8164 51.0859ZM23.8164 80.5859L44.5586 59.8437L46.8633 62.1484L23.8164 85.1953L0.53906 61.918L3.07422 59.8437L23.8164 80.5859ZM23.8164 110.086L44.5586 89.3437L46.8633 91.6484L23.8164 114.695L0.539058 91.418L3.07421 89.3437L23.8164 110.086ZM23.8164 139.586L44.5586 118.844L46.8633 121.148L23.8164 144.195L0.539057 120.918L3.07421 118.844L23.8164 139.586Z" fill="#272343"/>
</svg>
