<svg width="47" height="16" viewBox="0 0 47 16" fill="none" xmlns="http://www.w3.org/2000/svg">
<rect width="47" height="16" fill="#1E1E1E"/>
<g id="academy case ver 4" clip-path="url(#clip0_433_2)">
<rect width="1400" height="5094" transform="translate(-454 -2158)" fill="#F5F6F7"/>
<path id="Ellipse 4" d="M25 -359C25 -29.4162 -181.468 244.997 -454.5 304.181V-1022.18C-181.468 -962.997 25 -688.584 25 -359Z" fill="#EE892D"/>
<g id="3d block">
<g id="card 1">
<g id="Rectangle 47" filter="url(#filter0_d_433_2)">
<rect x="-169" y="-498" width="377" height="542" fill="white" fill-opacity="0.3" shape-rendering="crispEdges"/>
<rect x="-166.5" y="-495.5" width="372" height="537" stroke="#7EC543" stroke-width="5" shape-rendering="crispEdges"/>
</g>
<g id="Arrow 2" filter="url(#filter1_i_433_2)">
<path d="M46.7071 8.7071C47.0976 8.31658 47.0976 7.68341 46.7071 7.29289L40.3431 0.928929C39.9526 0.538404 39.3195 0.538404 38.9289 0.928929C38.5384 1.31945 38.5384 1.95262 38.9289 2.34314L44.5858 8L38.9289 13.6569C38.5384 14.0474 38.5384 14.6805 38.9289 15.0711C39.3195 15.4616 39.9526 15.4616 40.3431 15.0711L46.7071 8.7071ZM8.74228e-08 9L46 9L46 7L-8.74228e-08 7L8.74228e-08 9Z" fill="#7EC543"/>
</g>
</g>
</g>
</g>
<defs>
<filter id="filter0_d_433_2" x="-172" y="-499" width="385" height="550" filterUnits="userSpaceOnUse" color-interpolation-filters="sRGB">
<feFlood flood-opacity="0" result="BackgroundImageFix"/>
<feColorMatrix in="SourceAlpha" type="matrix" values="0 0 0 0 0 0 0 0 0 0 0 0 0 0 0 0 0 0 127 0" result="hardAlpha"/>
<feOffset dx="1" dy="3"/>
<feGaussianBlur stdDeviation="2"/>
<feComposite in2="hardAlpha" operator="out"/>
<feColorMatrix type="matrix" values="0 0 0 0 0 0 0 0 0 0 0 0 0 0 0 0 0 0 0.25 0"/>
<feBlend mode="normal" in2="BackgroundImageFix" result="effect1_dropShadow_433_2"/>
<feBlend mode="normal" in="SourceGraphic" in2="effect1_dropShadow_433_2" result="shape"/>
</filter>
<filter id="filter1_i_433_2" x="-1" y="0.635986" width="48" height="15.728" filterUnits="userSpaceOnUse" color-interpolation-filters="sRGB">
<feFlood flood-opacity="0" result="BackgroundImageFix"/>
<feBlend mode="normal" in="SourceGraphic" in2="BackgroundImageFix" result="shape"/>
<feColorMatrix in="SourceAlpha" type="matrix" values="0 0 0 0 0 0 0 0 0 0 0 0 0 0 0 0 0 0 127 0" result="hardAlpha"/>
<feOffset dx="-1" dy="1"/>
<feGaussianBlur stdDeviation="2"/>
<feComposite in2="hardAlpha" operator="arithmetic" k2="-1" k3="1"/>
<feColorMatrix type="matrix" values="0 0 0 0 0 0 0 0 0 0 0 0 0 0 0 0 0 0 0.25 0"/>
<feBlend mode="normal" in2="shape" result="effect1_innerShadow_433_2"/>
</filter>
<clipPath id="clip0_433_2">
<rect width="1400" height="5094" fill="white" transform="translate(-454 -2158)"/>
</clipPath>
</defs>
</svg>
